<?xml version="1.0" encoding="UTF-8" standalone="no"?>
<!-- Created with Inkscape (http://www.inkscape.org/) -->

<svg
   width="29.104166mm"
   height="29.104166mm"
   viewBox="0 0 29.104166 29.104166"
   version="1.1"
   id="svg60"
   inkscape:version="1.1.1 (3bf5ae0d25, 2021-09-20)"
   sodipodi:docname="drawing.svg"
   xmlns:inkscape="http://www.inkscape.org/namespaces/inkscape"
   xmlns:sodipodi="http://sodipodi.sourceforge.net/DTD/sodipodi-0.dtd"
   xmlns="http://www.w3.org/2000/svg"
   xmlns:svg="http://www.w3.org/2000/svg">
  <sodipodi:namedview
     id="namedview62"
     pagecolor="#ffffff"
     bordercolor="#666666"
     borderopacity="1.0"
     inkscape:pageshadow="2"
     inkscape:pageopacity="0.0"
     inkscape:pagecheckerboard="0"
     inkscape:document-units="mm"
     showgrid="false"
     inkscape:zoom="4.0668163"
     inkscape:cx="53.727531"
     inkscape:cy="24.22042"
     inkscape:window-width="1844"
     inkscape:window-height="1057"
     inkscape:window-x="1592"
     inkscape:window-y="892"
     inkscape:window-maximized="1"
     inkscape:current-layer="g120"
     fit-margin-top="0"
     fit-margin-left="0"
     fit-margin-right="0"
     fit-margin-bottom="0" />
  <defs
     id="defs57">
    
  </defs>
  <g
     inkscape:label="Layer 1"
     inkscape:groupmode="layer"
     id="layer1"
     transform="translate(-29.42747,-16.822451)">
    <g
       id="g120"
       transform="matrix(0.26458333,0,0,0.26458333,29.162887,16.557868)">
      <path
         d="M 67.9,25.9 C 64.2,24.4 60.2,23.6 56,23.6 38.1,23.6 23.6,38.1 23.6,56 c 0,17.9 14.5,32.4 32.4,32.4 17.9,0 32.4,-14.5 32.4,-32.4 0,-6.5 -2,-12.6 -5.3,-17.7 L 97.9,20.4 C 106.1,30 111,42.4 111,56 111,86.4 86.4,111 56,111 25.6,111 1,86.4 1,56 1,25.6 25.6,1 56,1 65.7,1 74.8,3.5 82.7,7.9 Z M 56,72 c 8.8,0 16,-7.2 16,-16 0,-8.8 -7.2,-16 -16,-16 -8.8,0 -16,7.2 -16,16 0,8.8 7.2,16 16,16 z"
         id="path102" />
      <path
         opacity="0.26"
         d="m 56,1.8 c 8.9,0 17.7,2.2 25.5,6.4 L 67.7,25 C 63.9,23.6 60,22.9 56,22.9 37.7,22.9 22.8,37.8 22.8,56.1 22.8,74.4 37.7,89.2 56,89.2 74.3,89.2 89.2,74.3 89.2,56 89.2,49.7 87.4,43.6 84.1,38.3 L 97.9,21.5 c 8,9.7 12.4,21.9 12.4,34.5 0,29.9 -24.3,54.2 -54.2,54.2 C 26.2,110.2 1.8,85.9 1.8,56 1.8,26.1 26.1,1.8 56,1.8 m 0,39 c 8.4,0 15.3,6.8 15.3,15.3 0,8.5 -6.9,15.2 -15.3,15.2 C 47.6,71.3 40.8,64.4 40.8,56 40.8,47.6 47.6,40.8 56,40.8 M 56,1 C 25.6,1 1,25.6 1,56 c 0,30.4 24.6,55 55,55 30.4,0 55,-24.6 55,-55 0,-13.6 -4.9,-26 -13.1,-35.6 L 83.1,38.3 C 86.4,43.4 88.4,49.5 88.4,56 88.4,73.9 73.9,88.4 56,88.4 38.1,88.4 23.6,73.9 23.6,56 23.6,38.1 38.1,23.6 56,23.6 c 4.2,0 8.2,0.8 11.9,2.3 L 82.7,7.9 C 74.8,3.5 65.7,1 56,1 Z m 0,39 c -8.8,0 -16,7.2 -16,16 0,8.8 7.2,16 16,16 8.8,0 16,-7.2 16,-16 0,-8.8 -7.2,-16 -16,-16 z"
         id="path104" />
    </g>
  </g>
</svg>
